<?xml version="1.0" encoding="iso-8859-1"?>
<!-- Generator: Adobe Illustrator 19.0.0, SVG Export Plug-In . SVG Version: 6.00 Build 0)  -->
<svg xmlns="http://www.w3.org/2000/svg" xmlns:xlink="http://www.w3.org/1999/xlink" version="1.1" id="Layer_1" x="0px" y="0px" viewBox="0 0 512 512" style="enable-background:new 0 0 512 512;" xml:space="preserve" width="512px" height="512px">
<g>
	<g>
		<path d="M255.722,0.278C114.717,0.278,0,114.995,0,256c0,1.499,0.216,2.945,0.587,4.327c-0.048,1.978-0.031,199.494-0.031,201.362    c0,27.588,22.445,50.033,50.033,50.033h411.379c27.588,0,50.033-22.445,50.033-50.033v-200.13    C512,109.188,391.953,0.278,255.722,0.278z M436.603,126.86c18.115,25.289,31.055,54.514,37.284,86.113    c-3.823-0.938-7.813-1.446-11.92-1.446h-69.321c-1.92-20.565-5.17-40.501-9.64-59.382    C402.601,145.288,420.647,136.811,436.603,126.86z M414.946,101.002c-12.383,7.341-26.165,13.723-41.052,19.058    c-8.285-24.736-19.712-49.43-35.055-70.275C367.69,61.47,393.558,79.04,414.946,101.002z M272.956,36.868    c34.051,12.747,57.176,57.947,68.963,92.648c-21.644,5.149-44.875,8.329-68.963,9.362V36.868z M272.956,172.254    c27.161-1.086,53.458-4.718,78.03-10.678c3.67,15.885,6.413,32.636,8.151,49.95h-86.181V172.254z M239.6,36.465v102.459    c-24.485-0.981-48.097-4.178-70.075-9.406C181.337,94.744,204.86,48.625,239.6,36.465z M239.6,172.3v39.227h-87.292    c1.738-17.315,4.482-34.066,8.152-49.95C185.365,167.619,212.045,171.27,239.6,172.3z M172.632,49.751    c-15.407,20.92-26.827,45.666-35.081,70.31c-14.901-5.34-28.695-11.729-41.087-19.079C117.86,79.006,143.747,61.43,172.632,49.751    z M74.813,126.843c15.963,9.959,34.019,18.442,53.624,25.302c-4.47,18.881-7.719,38.818-9.64,59.382H50.589    c-4.532,0-8.921,0.617-13.099,1.751C43.69,181.55,56.647,152.215,74.813,126.843z M478.645,461.69    c0,9.196-7.482,16.677-16.677,16.677H50.589c-9.196,0-16.678-7.482-16.678-16.677v-200.13c0-9.196,7.482-16.678,16.678-16.678    c9.486,0,406.332,0,411.379,0c9.196,0,16.677,7.482,16.677,16.678V461.69z" fill="#ecf0f1"/>
	</g>
</g>
<g>
	<g>
		<path d="M122.858,411.657H106.18V294.914c0-9.21-7.467-16.678-16.677-16.678c-9.21,0-16.678,7.467-16.678,16.678v133.42    c0,9.21,7.467,16.678,16.678,16.678h33.355c9.21,0,16.677-7.467,16.677-16.678C139.535,419.124,132.068,411.657,122.858,411.657z" fill="#ecf0f1"/>
	</g>
</g>
<g>
	<g>
		<path d="M189.568,278.237c-9.21,0-16.678,7.467-16.678,16.678v133.42c0,9.21,7.467,16.678,16.678,16.678    s16.678-7.467,16.678-16.678v-133.42C206.245,285.704,198.778,278.237,189.568,278.237z" fill="#ecf0f1"/>
	</g>
</g>
<g>
	<g>
		<path d="M327.033,278.735c-8.922-2.231-17.991,3.198-20.223,12.135l-17.177,68.701l-17.176-68.703    c-2.235-8.937-11.292-14.37-20.223-12.135c-8.936,2.234-14.369,11.289-12.135,20.224l33.355,133.42    c1.856,7.424,8.527,12.633,16.179,12.633c7.653,0,14.324-5.209,16.179-12.633l33.355-133.42    C341.402,290.023,335.969,280.969,327.033,278.735z" fill="#ecf0f1"/>
	</g>
</g>
<g>
	<g>
		<path d="M423.053,378.302c9.21,0,16.678-7.467,16.678-16.678s-7.467-16.677-16.678-16.677h-16.678v-33.355h16.678    c9.21,0,16.678-7.467,16.678-16.677s-7.467-16.678-16.678-16.678h-33.355c-9.21,0-16.678,7.467-16.678,16.678v133.42    c0,9.21,7.467,16.678,16.678,16.678h33.355c9.21,0,16.678-7.467,16.678-16.678c0-9.21-7.467-16.677-16.678-16.677h-16.678v-33.355    H423.053z" fill="#ecf0f1"/>
	</g>
</g>
<g>
</g>
<g>
</g>
<g>
</g>
<g>
</g>
<g>
</g>
<g>
</g>
<g>
</g>
<g>
</g>
<g>
</g>
<g>
</g>
<g>
</g>
<g>
</g>
<g>
</g>
<g>
</g>
<g>
</g>
</svg>
